<svg xmlns="http://www.w3.org/2000/svg" version="1.1" style="font-family:Lato, &#x27;Helvetica Neue&#x27;, Helvetica, Arial, sans-serif;font-size:18px;background-color:white;text-rendering:optimizeLegibility;-webkit-font-smoothing:antialiased" width="850" height="600"><g class="HeaderView"><g transform="translate(774, 15) scale(0.29)"><svg width="210" height="120" viewBox="0 0 210 120" fill="none" xmlns="http://www.w3.org/2000/svg"><defs>
        <clipPath id="clip0">
            <rect width="210" height="120" fill="white"/>
        </clipPath>
    </defs>
</svg></g><a href="https://ourworldindata.org/grapher/acres-burned-per-wildfire-usa" style="font-family:&quot;Playfair Display&quot;, Georgia, &quot;Times New Roman&quot;, serif" target="_blank"><text font-size="25.20" x="15.0" y="35.2" fill="#555"><tspan x="15" y="35.160000000000004">Average acres burned per wildfire in the United States</tspan></text></a><text font-size="14.40" x="15.0" y="55.7" fill="#666"><tspan x="15" y="55.72">Average number of acres burned per wildfire in a given year in the United States. This is shown from 1983</tspan><tspan x="15" y="71.56">onwards, when consistent reporting began. Data prior to 1983 is reported by the NIFC to not be comparable to that</tspan><tspan x="15" y="87.4">thereafter.</tspan></text></g><g class="StackedBarChart"><defs><clipPath id="boundsClip-1"><rect x="47.216" y="109.60000000000001" width="667.784" height="425.7"></rect></clipPath></defs><rect x="15" y="109.60000000000001" width="820" height="446.9" opacity="0" fill="rgba(255,255,255,0)"></rect><g class="VerticalAxis"><text x="42.22" y="535.3" fill="#666" dominant-baseline="middle" text-anchor="end" font-size="16.2">0</text><text x="42.22" y="478.2" fill="#666" dominant-baseline="middle" text-anchor="end" font-size="16.2">20</text><text x="42.22" y="421" fill="#666" dominant-baseline="middle" text-anchor="end" font-size="16.2">40</text><text x="42.22" y="363.9" fill="#666" dominant-baseline="middle" text-anchor="end" font-size="16.2">60</text><text x="42.22" y="306.7" fill="#666" dominant-baseline="middle" text-anchor="end" font-size="16.2">80</text><text x="42.22" y="249.6" fill="#666" dominant-baseline="middle" text-anchor="end" font-size="16.2">100</text><text x="42.22" y="192.5" fill="#666" dominant-baseline="middle" text-anchor="end" font-size="16.2">120</text><text x="42.22" y="135.3" fill="#666" dominant-baseline="middle" text-anchor="end" font-size="16.2">140</text></g><g class="AxisGridLines"><line x1="47.22" y1="535.3" x2="715.00" y2="535.3" stroke="#ccc"></line><line x1="47.22" y1="478.2" x2="715.00" y2="478.2" stroke="#ddd" stroke-dasharray="3,2"></line><line x1="47.22" y1="421" x2="715.00" y2="421" stroke="#ddd" stroke-dasharray="3,2"></line><line x1="47.22" y1="363.9" x2="715.00" y2="363.9" stroke="#ddd" stroke-dasharray="3,2"></line><line x1="47.22" y1="306.7" x2="715.00" y2="306.7" stroke="#ddd" stroke-dasharray="3,2"></line><line x1="47.22" y1="249.6" x2="715.00" y2="249.6" stroke="#ddd" stroke-dasharray="3,2"></line><line x1="47.22" y1="192.5" x2="715.00" y2="192.5" stroke="#ddd" stroke-dasharray="3,2"></line><line x1="47.22" y1="135.3" x2="715.00" y2="135.3" stroke="#ddd" stroke-dasharray="3,2"></line></g><g><text x="40.51972571428571" y="553.26" fill="#666" font-size="16.2">1983</text><text x="97.75835428571428" y="553.26" fill="#666" font-size="16.2">1986</text><text x="154.99698285714283" y="553.26" fill="#666" font-size="16.2">1989</text><text x="212.2356114285714" y="553.26" fill="#666" font-size="16.2">1992</text><text x="269.47424" y="553.26" fill="#666" font-size="16.2">1995</text><text x="326.71286857142866" y="553.26" fill="#666" font-size="16.2">1998</text><text x="383.9514971428573" y="553.26" fill="#666" font-size="16.2">2001</text><text x="441.19012571428595" y="553.26" fill="#666" font-size="16.2">2004</text><text x="498.4287542857146" y="553.26" fill="#666" font-size="16.2">2007</text><text x="555.6673828571433" y="553.26" fill="#666" font-size="16.2">2010</text><text x="612.9060114285719" y="553.26" fill="#666" font-size="16.2">2013</text><text x="689.2241828571434" y="553.26" fill="#666" font-size="16.2">2017</text></g><g clip-path="url(#boundsClip-1)"><g class="United-States_0-segments"><rect x="51.03190857142857" y="326.7" width="15.263634285714287" height="208.59999999999997" fill="#f6a324" opacity="0.8"></rect><rect x="70.11145142857143" y="375.3" width="15.263634285714287" height="159.99999999999994" fill="#f6a324" opacity="0.8"></rect><rect x="89.19099428571428" y="435.3" width="15.263634285714287" height="99.99999999999994" fill="#f6a324" opacity="0.8"></rect><rect x="108.27053714285714" y="443.9" width="15.263634285714287" height="91.39999999999998" fill="#f6a324" opacity="0.8"></rect><rect x="127.35007999999999" y="438.2" width="15.263634285714287" height="97.09999999999997" fill="#f6a324" opacity="0.8"></rect><rect x="146.42962285714285" y="338.2" width="15.263634285714287" height="197.09999999999997" fill="#f6a324" opacity="0.8"></rect><rect x="165.5091657142857" y="429.6" width="15.263634285714287" height="105.69999999999993" fill="#f6a324" opacity="0.8"></rect><rect x="184.58870857142855" y="335.3" width="15.263634285714287" height="199.99999999999994" fill="#f6a324" opacity="0.8"></rect><rect x="203.6682514285714" y="423.9" width="15.263634285714287" height="111.39999999999998" fill="#f6a324" opacity="0.8"></rect><rect x="222.74779428571426" y="466.7" width="15.263634285714287" height="68.59999999999997" fill="#f6a324" opacity="0.8"></rect><rect x="241.82733714285712" y="446.7" width="15.263634285714287" height="88.59999999999997" fill="#f6a324" opacity="0.8"></rect><rect x="260.90688" y="389.6" width="15.263634285714287" height="145.69999999999993" fill="#f6a324" opacity="0.8"></rect><rect x="279.9864228571429" y="472.4" width="15.263634285714287" height="62.89999999999998" fill="#f6a324" opacity="0.8"></rect><rect x="299.06596571428577" y="355.3" width="15.263634285714287" height="179.99999999999994" fill="#f6a324" opacity="0.8"></rect><rect x="318.14550857142865" y="412.4" width="15.263634285714287" height="122.89999999999998" fill="#f6a324" opacity="0.8"></rect><rect x="337.22505142857153" y="489.6" width="15.263634285714287" height="45.69999999999993" fill="#f6a324" opacity="0.8"></rect><rect x="356.3045942857144" y="361" width="15.263634285714287" height="174.29999999999995" fill="#f6a324" opacity="0.8"></rect><rect x="375.3841371428573" y="306.7" width="15.263634285714287" height="228.59999999999997" fill="#f6a324" opacity="0.8"></rect><rect x="394.4636800000002" y="415.3" width="15.263634285714287" height="119.99999999999994" fill="#f6a324" opacity="0.8"></rect><rect x="413.54322285714306" y="255.3" width="15.263634285714287" height="279.99999999999994" fill="#f6a324" opacity="0.8"></rect><rect x="432.62276571428595" y="358.2" width="15.263634285714287" height="177.09999999999997" fill="#f6a324" opacity="0.8"></rect><rect x="451.70230857142883" y="181" width="15.263634285714287" height="354.29999999999995" fill="#f6a324" opacity="0.8"></rect><rect x="470.7818514285717" y="163.9" width="15.263634285714287" height="371.4" fill="#f6a324" opacity="0.8"></rect><rect x="489.8613942857146" y="243.9" width="15.263634285714287" height="291.4" fill="#f6a324" opacity="0.8"></rect><rect x="508.9409371428575" y="223.9" width="15.263634285714287" height="311.4" fill="#f6a324" opacity="0.8"></rect><rect x="528.0204800000004" y="343.9" width="15.263634285714287" height="191.39999999999998" fill="#f6a324" opacity="0.8"></rect><rect x="547.1000228571432" y="321" width="15.263634285714287" height="214.29999999999995" fill="#f6a324" opacity="0.8"></rect><rect x="566.1795657142861" y="398.2" width="15.263634285714287" height="137.09999999999997" fill="#f6a324" opacity="0.8"></rect><rect x="585.259108571429" y="198.2" width="15.263634285714287" height="337.09999999999997" fill="#f6a324" opacity="0.8"></rect><rect x="604.3386514285719" y="141" width="15.263634285714287" height="394.29999999999995" fill="#f6a324" opacity="0.8"></rect><rect x="623.4181942857148" y="275.3" width="15.263634285714287" height="259.99999999999994" fill="#f6a324" opacity="0.8"></rect><rect x="642.4977371428577" y="372.4" width="15.263634285714287" height="162.89999999999998" fill="#f6a324" opacity="0.8"></rect><rect x="661.5772800000005" y="109.6" width="15.263634285714287" height="425.69999999999993" fill="#f6a324" opacity="0.8"></rect><rect x="680.6568228571434" y="303.9" width="15.263634285714287" height="231.39999999999998" fill="#f6a324" opacity="0.8"></rect><rect x="699.7363657142863" y="135.3" width="15.263634285714287" height="399.99999999999994" fill="#f6a324" opacity="0.8"></rect></g></g><g class="ScatterColorLegend clickable" style="cursor:pointer"><g class="legendMark"><rect x="735" y="107.10000000000001" width="86.978" height="17.6" fill="#fff" opacity="0"></rect>,<rect x="735" y="112.60000000000001" width="6" height="6" fill="#f6a324"></rect>,<text font-size="12.60" x="746.0" y="119.7"><tspan x="746" y="119.68">United States</tspan></text></g></g></g><g class="SourcesFooter" style="fill:#777"><g class="clickable" style="fill:#777"><text font-size="12.60" x="15.0" y="581.6"><tspan x="15" y="581.58">Source: National Interagency Fire Center (NIFC)</tspan></text></g><text font-size="12.60" x="796.4" y="581.6"><tspan x="796.444" y="581.58"><a style="fill: #777;" class="cclogo" href="http://creativecommons.org/licenses/by/4.0/deed.en_US" target="_blank">CC BY</a></tspan></text></g></svg>